# xmcd
#
# Track frame offsets: 
#        150
#        9823
#        16968
#        24678
#        31649
#        36997
#        42575
#        48177
#        55713
#        62216
#        69049
#        76671
#        81227
#        86521
#        92697
#        102857
#        107343
#        114548
#        119282
#        124699
#        130773
#        136084
#        145397
#        151304
#        157015
#
# Disc length: 2216 seconds
#
# Revision: 0
# Processed by: cddbd v1.5.2PL0 Copyright (c) Steve Scherf et al.
# Submitted via: ExactAudioCopy v0.95b4
#
DISCID=3108a619
DTITLE=Various Artist - Back Porch Classics
DYEAR=2005
DGENRE=Bluegrass
TTITLE0=Charlotte Breakdown
TTITLE1=John Henry
TTITLE2=Black Mountain Rag
TTITLE3=Worried Mountain
TTITLE4=Keep on the Sunny Side
TTITLE5=Black Eyed Susan
TTITLE6=Old Joe Clark
TTITLE7=Deep Elm Blues
TTITLE8=Cripple Creek
TTITLE9=Red Wing
TTITLE10=Earl's Breakdown
TTITLE11=I Ain't Gonna Work Here Tomorrow
TTITLE12=Frosty Mountain on Fire
TTITLE13=Grandfather's Clock
TTITLE14=Ragged But Right
TTITLE15=Big Sandy
TTITLE16=Shuckin' the Corn
TTITLE17=Flat Top March
TTITLE18=Little Liza Jane
TTITLE19=Fireball
TTITLE20=Down Yonder
TTITLE21=Land of Jubalo
TTITLE22=Ida Red
TTITLE23=Double Eagle
TTITLE24=Dixie Breakdown
EXTD=
EXTT0=
EXTT1=
EXTT2=
EXTT3=
EXTT4=
EXTT5=
EXTT6=
EXTT7=
EXTT8=
EXTT9=
EXTT10=
EXTT11=
EXTT12=
EXTT13=
EXTT14=
EXTT15=
EXTT16=
EXTT17=
EXTT18=
EXTT19=
EXTT20=
EXTT21=
EXTT22=
EXTT23=
EXTT24=
PLAYORDER=
